<svg xmlns="http://www.w3.org/2000/svg" xmlns:xlink="http://www.w3.org/1999/xlink" width="40" zoomAndPan="magnify" viewBox="0 0 30 30.000001" height="40" preserveAspectRatio="xMidYMid meet" version="1.0"><defs><clipPath id="a1dfcd885b"><path d="M 0.871094 0.363281 L 29.179688 0.363281 L 29.179688 28.667969 L 0.871094 28.667969 Z M 0.871094 0.363281 " clip-rule="nonzero"/></clipPath></defs><g clip-path="url(#a1dfcd885b)"><path fill="#d9d9d9" d="M 29.121094 14.507812 C 29.121094 16.410156 28.746094 18.261719 28.007812 20.003906 C 27.296875 21.6875 26.28125 23.199219 24.984375 24.496094 C 23.6875 25.792969 22.175781 26.816406 20.492188 27.527344 C 18.75 28.261719 16.902344 28.644531 14.996094 28.644531 L 8.621094 28.644531 L 14.976562 25.054688 L 14.996094 25.054688 C 20.804688 25.054688 25.527344 20.316406 25.527344 14.511719 C 25.527344 8.703125 20.800781 3.96875 14.996094 3.96875 L 4.464844 3.96875 L 4.464844 13.625 L 12.3125 9.1875 C 13.59375 8.457031 15.089844 8.261719 16.515625 8.628906 C 17.941406 8.996094 19.152344 9.890625 19.921875 11.148438 C 20.730469 12.464844 20.960938 14.015625 20.574219 15.511719 C 20.1875 17.003906 19.238281 18.25 17.894531 19.011719 L 0.871094 28.636719 L 0.871094 24.507812 L 16.121094 15.886719 C 16.609375 15.609375 16.953125 15.15625 17.09375 14.613281 C 17.234375 14.066406 17.152344 13.503906 16.855469 13.023438 C 16.273438 12.074219 15.058594 11.761719 14.089844 12.3125 L 0.871094 19.785156 L 0.871094 0.378906 L 14.996094 0.378906 C 16.902344 0.378906 18.753906 0.753906 20.496094 1.488281 C 22.175781 2.203125 23.6875 3.222656 24.984375 4.515625 C 26.28125 5.8125 27.296875 7.324219 28.011719 9.007812 C 28.746094 10.75 29.121094 12.601562 29.121094 14.507812 Z M 29.121094 14.507812 " fill-opacity="1" fill-rule="nonzero"/></g></svg>